<svg width="24" height="24" viewBox="0 0 24 24" fill="none" xmlns="http://www.w3.org/2000/svg">
  <!-- Trophy cup body -->
  <path d="M7 8V5H17V8" stroke="#4A5568" stroke-width="2" stroke-linecap="round" stroke-linejoin="round"/>
  
  <!-- Left handle -->
  <path d="M7 8H5C5 8 4 8 4 10C4 12 5 13 7 13" stroke="#4A5568" stroke-width="2" stroke-linecap="round" stroke-linejoin="round"/>
  
  <!-- Right handle -->
  <path d="M17 8H19C19 8 20 8 20 10C20 12 19 13 17 13" stroke="#4A5568" stroke-width="2" stroke-linecap="round" stroke-linejoin="round"/>
  
  <!-- Cup bowl -->
  <path d="M7 8C7 8 7 14 12 14C17 14 17 8 17 8H7Z" stroke="#4A5568" stroke-width="2" stroke-linecap="round" stroke-linejoin="round"/>
  
  <!-- Stem -->
  <line x1="12" y1="14" x2="12" y2="17" stroke="#4A5568" stroke-width="2" stroke-linecap="round"/>
  
  <!-- Base -->
  <line x1="9" y1="17" x2="15" y2="17" stroke="#4A5568" stroke-width="2" stroke-linecap="round"/>
  <path d="M8 17V19H16V17" stroke="#4A5568" stroke-width="2" stroke-linecap="round" stroke-linejoin="round"/>
</svg>
