<svg width="24" height="24" viewBox="0 0 24 24" fill="none" xmlns="http://www.w3.org/2000/svg">
  <path d="M5 5.5C5 6.32843 4.32843 7 3.5 7C2.67157 7 2 6.32843 2 5.5C2 4.67157 2.67157 4 3.5 4C4.32843 4 5 4.67157 5 5.5Z" stroke="currentColor" stroke-width="1.5"/>
  <path d="M9 5.5H22" stroke="currentColor" stroke-width="1.5" stroke-linecap="round"/>
  <path d="M2 5.5H5" stroke="currentColor" stroke-width="1.5" stroke-linecap="round"/>
  <path d="M19 12.5C19 13.3284 18.3284 14 17.5 14C16.6716 14 16 13.3284 16 12.5C16 11.6716 16.6716 11 17.5 11C18.3284 11 19 11.6716 19 12.5Z" stroke="currentColor" stroke-width="1.5"/>
  <path d="M22 12.5H19" stroke="currentColor" stroke-width="1.5" stroke-linecap="round"/>
  <path d="M16 12.5H2" stroke="currentColor" stroke-width="1.5" stroke-linecap="round"/>
  <path d="M8 19.5C8 20.3284 7.32843 21 6.5 21C5.67157 21 5 20.3284 5 19.5C5 18.6716 5.67157 18 6.5 18C7.32843 18 8 18.6716 8 19.5Z" stroke="currentColor" stroke-width="1.5"/>
  <path d="M2 19.5H5" stroke="currentColor" stroke-width="1.5" stroke-linecap="round"/>
  <path d="M8 19.5H22" stroke="currentColor" stroke-width="1.5" stroke-linecap="round"/>
</svg>