<svg width="24" height="24" viewBox="0 0 24 24" fill="none" xmlns="http://www.w3.org/2000/svg">
  <!-- Dog/Cat head -->
  <circle cx="12" cy="13" r="7" stroke="#4A5568" stroke-width="2"/>
  
  <!-- Left ear -->
  <path d="M7 8C7 8 6 6 5 6C4 6 3 7 3 9C3 10 4 11 5 10" stroke="#4A5568" stroke-width="2" stroke-linecap="round" stroke-linejoin="round"/>
  
  <!-- Right ear -->
  <path d="M17 8C17 8 18 6 19 6C20 6 21 7 21 9C21 10 20 11 19 10" stroke="#4A5568" stroke-width="2" stroke-linecap="round" stroke-linejoin="round"/>
  
  <!-- Eyes -->
  <circle cx="9.5" cy="12" r="1.5" fill="#4A5568"/>
  <circle cx="14.5" cy="12" r="1.5" fill="#4A5568"/>
  
  <!-- Nose -->
  <path d="M12 14.5V16M10 15.5C10 15.5 11 17 12 17C13 17 14 15.5 14 15.5" stroke="#4A5568" stroke-width="2" stroke-linecap="round" stroke-linejoin="round"/>
</svg>
